<svg width="44" height="44" viewBox="0 0 44 44" fill="none" xmlns="http://www.w3.org/2000/svg">
<path fill-rule="evenodd" clip-rule="evenodd" d="M13.597 34.576C16.0843 36.2379 19.0086 37.125 22 37.125C26.01 37.1205 29.8545 35.5255 32.69 32.69C35.5255 29.8545 37.1205 26.01 37.125 22C37.125 19.0086 36.2379 16.0843 34.576 13.597C32.914 11.1097 30.5518 9.1711 27.7881 8.02633C25.0244 6.88155 21.9832 6.58203 19.0493 7.16563C16.1153 7.74923 13.4203 9.18975 11.305 11.305C9.18975 13.4203 7.74923 16.1153 7.16563 19.0493C6.58203 21.9832 6.88155 25.0244 8.02633 27.7881C9.1711 30.5518 11.1097 32.914 13.597 34.576ZM27.4655 28.8405C28.368 27.9379 28.875 26.7139 28.875 25.4375C28.875 24.1612 28.368 22.9371 27.4655 22.0346C26.5629 21.132 25.3389 20.625 24.0625 20.625H19.9375C19.3905 20.625 18.8659 20.4077 18.4791 20.0209C18.0923 19.6341 17.875 19.1095 17.875 18.5625C17.875 18.0155 18.0923 17.4909 18.4791 17.1041C18.8659 16.7173 19.3905 16.5 19.9375 16.5H26.125C26.4897 16.5 26.8394 16.3551 27.0973 16.0973C27.3551 15.8394 27.5 15.4897 27.5 15.125C27.5 14.7603 27.3551 14.4106 27.0973 14.1527C26.8394 13.8949 26.4897 13.75 26.125 13.75H23.375V12.375C23.375 12.0103 23.2301 11.6606 22.9723 11.4027C22.7144 11.1449 22.3647 11 22 11C21.6353 11 21.2856 11.1449 21.0277 11.4027C20.7699 11.6606 20.625 12.0103 20.625 12.375V13.75H19.9375C18.6612 13.75 17.4371 14.257 16.5346 15.1596C15.632 16.0621 15.125 17.2862 15.125 18.5625C15.125 19.8389 15.632 21.0629 16.5346 21.9655C17.4371 22.868 18.6612 23.375 19.9375 23.375H24.0625C24.6095 23.375 25.1341 23.5923 25.5209 23.9791C25.9077 24.3659 26.125 24.8905 26.125 25.4375C26.125 25.9845 25.9077 26.5091 25.5209 26.8959C25.1341 27.2827 24.6095 27.5 24.0625 27.5H17.875C17.5103 27.5 17.1606 27.6449 16.9027 27.9027C16.6449 28.1606 16.5 28.5103 16.5 28.875C16.5 29.2397 16.6449 29.5894 16.9027 29.8473C17.1606 30.1051 17.5103 30.25 17.875 30.25H20.625V31.625C20.625 31.9897 20.7699 32.3394 21.0277 32.5973C21.2856 32.8551 21.6353 33 22 33C22.3647 33 22.7144 32.8551 22.9723 32.5973C23.2301 32.3394 23.375 31.9897 23.375 31.625V30.25H24.0625C25.3389 30.25 26.5629 29.743 27.4655 28.8405Z" fill="#1818CC"/>
</svg>
