<svg width="202" height="44" viewBox="0 0 202 44" fill="none" xmlns="http://www.w3.org/2000/svg">
<path fill-rule="evenodd" clip-rule="evenodd" d="M13.597 34.576C16.0843 36.2379 19.0086 37.125 22 37.125C26.01 37.1205 29.8545 35.5255 32.69 32.69C35.5255 29.8545 37.1205 26.01 37.125 22C37.125 19.0086 36.2379 16.0843 34.576 13.597C32.914 11.1097 30.5518 9.1711 27.7881 8.02633C25.0244 6.88155 21.9832 6.58203 19.0493 7.16563C16.1153 7.74923 13.4203 9.18975 11.305 11.305C9.18975 13.4203 7.74923 16.1153 7.16563 19.0493C6.58203 21.9832 6.88155 25.0244 8.02633 27.7881C9.1711 30.5518 11.1097 32.914 13.597 34.576ZM27.4655 28.8405C28.368 27.9379 28.875 26.7139 28.875 25.4375C28.875 24.1612 28.368 22.9371 27.4655 22.0346C26.5629 21.132 25.3389 20.625 24.0625 20.625H19.9375C19.3905 20.625 18.8659 20.4077 18.4791 20.0209C18.0923 19.6341 17.875 19.1095 17.875 18.5625C17.875 18.0155 18.0923 17.4909 18.4791 17.1041C18.8659 16.7173 19.3905 16.5 19.9375 16.5H26.125C26.4897 16.5 26.8394 16.3551 27.0973 16.0973C27.3551 15.8394 27.5 15.4897 27.5 15.125C27.5 14.7603 27.3551 14.4106 27.0973 14.1527C26.8394 13.8949 26.4897 13.75 26.125 13.75H23.375V12.375C23.375 12.0103 23.2301 11.6606 22.9723 11.4027C22.7144 11.1449 22.3647 11 22 11C21.6353 11 21.2856 11.1449 21.0277 11.4027C20.7699 11.6606 20.625 12.0103 20.625 12.375V13.75H19.9375C18.6612 13.75 17.4371 14.257 16.5346 15.1596C15.632 16.0621 15.125 17.2862 15.125 18.5625C15.125 19.8389 15.632 21.0629 16.5346 21.9655C17.4371 22.868 18.6612 23.375 19.9375 23.375H24.0625C24.6095 23.375 25.1341 23.5923 25.5209 23.9791C25.9077 24.3659 26.125 24.8905 26.125 25.4375C26.125 25.9845 25.9077 26.5091 25.5209 26.8959C25.1341 27.2827 24.6095 27.5 24.0625 27.5H17.875C17.5103 27.5 17.1606 27.6449 16.9027 27.9027C16.6449 28.1606 16.5 28.5103 16.5 28.875C16.5 29.2397 16.6449 29.5894 16.9027 29.8473C17.1606 30.1051 17.5103 30.25 17.875 30.25H20.625V31.625C20.625 31.9897 20.7699 32.3394 21.0277 32.5973C21.2856 32.8551 21.6353 33 22 33C22.3647 33 22.7144 32.8551 22.9723 32.5973C23.2301 32.3394 23.375 31.9897 23.375 31.625V30.25H24.0625C25.3389 30.25 26.5629 29.743 27.4655 28.8405Z" fill="#1818CC"/>
<path d="M54.912 34V11.6H59.712V34H54.912ZM57.12 25.104V20.944H68.736V25.104H57.12ZM57.12 15.92V11.6H70.08V15.92H57.12ZM73.961 34V29.872H77.705V15.728H73.961V11.6H86.217V15.728H82.505V29.872H86.217V34H73.961ZM91.4745 34V11.6H95.7625L108.179 28.368H107.315C107.165 27.28 107.037 26.2027 106.931 25.136C106.824 24.048 106.749 22.896 106.707 21.68C106.685 20.464 106.675 19.1093 106.675 17.616V11.6H111.347V34H106.995L94.3545 17.136H95.5065C95.6558 18.544 95.7732 19.7067 95.8585 20.624C95.9438 21.5413 96.0078 22.3093 96.0505 22.928C96.0932 23.5253 96.1252 24.0587 96.1465 24.528C96.1678 24.9973 96.1785 25.488 96.1785 26V34H91.4745ZM121.802 34V15.92H115.338V11.6H133.322V15.92H126.602V34H121.802ZM137.287 34V11.6H152.391V15.824H141.991V29.776H152.615V34H137.287ZM139.527 24.624V20.528H150.855V24.624H139.527ZM167.392 34.32C165.749 34.32 164.234 34.0427 162.848 33.488C161.482 32.912 160.288 32.112 159.264 31.088C158.261 30.0427 157.482 28.816 156.928 27.408C156.394 26 156.128 24.4533 156.128 22.768C156.128 21.1253 156.416 19.6107 156.992 18.224C157.568 16.816 158.378 15.5893 159.424 14.544C160.469 13.4987 161.685 12.688 163.072 12.112C164.48 11.536 166.005 11.248 167.648 11.248C168.714 11.248 169.76 11.3973 170.784 11.696C171.829 11.9733 172.778 12.4 173.632 12.976C174.506 13.5307 175.253 14.1813 175.872 14.928L172.864 18.288C172.117 17.4773 171.306 16.8587 170.432 16.432C169.557 16.0053 168.618 15.792 167.616 15.792C166.698 15.792 165.834 15.9627 165.024 16.304C164.234 16.624 163.541 17.0933 162.944 17.712C162.346 18.3307 161.877 19.0667 161.536 19.92C161.194 20.7733 161.024 21.7227 161.024 22.768C161.024 23.8347 161.184 24.8053 161.504 25.68C161.845 26.5333 162.325 27.2693 162.944 27.888C163.562 28.4853 164.298 28.9547 165.152 29.296C166.026 29.616 166.986 29.776 168.032 29.776C168.714 29.776 169.365 29.68 169.984 29.488C170.624 29.296 171.221 29.0293 171.776 28.688C172.33 28.3467 172.821 27.952 173.248 27.504L175.584 31.248C175.093 31.824 174.41 32.3467 173.536 32.816C172.661 33.2853 171.69 33.6587 170.624 33.936C169.557 34.192 168.48 34.32 167.392 34.32ZM193.775 34V11.6H198.575V34H193.775ZM179.631 34V11.6H184.431V34H179.631ZM181.583 25.04V20.624H196.207V25.04H181.583Z" fill="white"/>
</svg>
